<?xml version="1.0" encoding="UTF-8" standalone="no"?>
<!DOCTYPE svg PUBLIC "-//W3C//DTD SVG 1.1//EN" "http://www.w3.org/Graphics/SVG/1.1/DTD/svg11.dtd">
<svg width="100%" height="100%" viewBox="0 0 275 274" version="1.1" xmlns="http://www.w3.org/2000/svg" xmlns:xlink="http://www.w3.org/1999/xlink" xml:space="preserve" xmlns:serif="http://www.serif.com/" style="fill-rule:evenodd;clip-rule:evenodd;stroke-linecap:round;stroke-linejoin:round;stroke-miterlimit:1.5;">
    <rect id="Builder" x="9.626" y="9" width="256" height="256" style="fill:none;"/>
    <g>
        <g>
            <path d="M17,194.139C42.367,168.771 70.225,172.658 97.009,177.617M97.009,177.617C114.402,180.837 131.342,184.51 146.855,180.918M80.488,257.626C105.855,232.259 101.968,204.402 97.009,177.617M97.009,177.617C93.808,160.325 90.159,143.481 93.647,128.041" style="fill:none;stroke:black;stroke-width:10px;"/>
            <path d="M184.672,141.306C187.641,126.211 184.442,109.797 181.403,93.223M181.403,93.223C176.485,66.392 171.988,39.139 194.765,16.374M134.576,89.722C149.324,87.162 165.288,90.269 181.403,93.223M181.403,93.223C208.234,98.142 235.487,102.638 258.253,79.861" style="fill:none;stroke:black;stroke-width:10px;"/>
            <g>
                <path d="M251.904,79.861L202.172,30.129" style="fill:none;stroke:black;stroke-width:5px;"/>
                <path d="M240.207,91.559L196.961,48.313" style="fill:none;stroke:black;stroke-width:5px;"/>
                <path d="M220.141,95.677L193.926,69.461" style="fill:none;stroke:black;stroke-width:5px;"/>
            </g>
            <g>
                <path d="M20.363,192.101L73.269,245.008" style="fill:none;stroke:black;stroke-width:5px;"/>
                <path d="M32.061,180.404L78.066,226.409" style="fill:none;stroke:black;stroke-width:5px;"/>
                <path d="M54.071,178.231L80.524,204.684" style="fill:none;stroke:black;stroke-width:5px;"/>
            </g>
            <g>
                <path d="M111.836,109.093L157.731,154.988" style="fill:none;stroke:black;stroke-width:5px;"/>
                <path d="M95.454,138.522L120.442,163.51" style="fill:none;stroke:black;stroke-width:5px;"/>
                <path d="M139.743,91.105L165.731,117.093" style="fill:none;stroke:black;stroke-width:5px;"/>
            </g>
        </g>
        <g>
            <path d="M94.146,109.519L75.005,109.519L53.497,88.011L66.604,74.905L79.115,87.416L92.55,73.981L80.039,61.47L92.767,48.742L115.177,71.153L113.238,90.427L94.146,109.519Z" style="fill:none;stroke:black;stroke-width:10px;"/>
            <path d="M166.978,182.351L166.978,201.492L188.486,223L201.592,209.894L189.081,197.383L202.516,183.948L215.027,196.459L227.755,183.731L205.345,161.32L186.07,163.259L166.978,182.351Z" style="fill:none;stroke:black;stroke-width:10px;"/>
            <path d="M113.238,90.427L186.07,163.259L166.978,182.351L94.146,109.519L113.238,90.427Z" style="fill:none;stroke:black;stroke-width:10px;"/>
        </g>
    </g>
</svg>
