<?xml version="1.0" encoding="UTF-8" standalone="no"?>
<!DOCTYPE svg PUBLIC "-//W3C//DTD SVG 1.1//EN" "http://www.w3.org/Graphics/SVG/1.1/DTD/svg11.dtd">
<svg width="100%" height="100%" viewBox="0 0 129 129" version="1.1" xmlns="http://www.w3.org/2000/svg" xmlns:xlink="http://www.w3.org/1999/xlink" xml:space="preserve" xmlns:serif="http://www.serif.com/" style="fill-rule:evenodd;clip-rule:evenodd;stroke-linecap:round;stroke-linejoin:round;stroke-miterlimit:1.5;">
    <g transform="matrix(1,0,0,1,-1484,-358)">
        <g id="Icon_Campaigns" transform="matrix(0.5,0,0,0.5,1484.49,178.828)">
            <rect x="0" y="359" width="256" height="256" style="fill:none;"/>
            <g transform="matrix(2,0,0,2,-1575.3,-357.657)">
                <path d="M846.278,367.004C847.283,364.955 849.366,363.657 851.648,363.657C853.93,363.657 856.014,364.955 857.018,367.004L865.495,384.286L883.097,376.496C885.183,375.572 887.614,375.916 889.362,377.383C891.11,378.85 891.871,381.184 891.324,383.399L886.708,402.087L905.2,407.433C907.392,408.067 909.033,409.893 909.429,412.14C909.825,414.387 908.908,416.664 907.065,418.01L891.517,429.358L902.246,445.34C903.518,447.235 903.601,449.688 902.46,451.664C901.319,453.64 899.152,454.795 896.876,454.641L877.671,453.34L875.617,472.48C875.373,474.748 873.86,476.681 871.715,477.462C869.571,478.242 867.169,477.734 865.524,476.153L851.648,462.812L837.773,476.153C836.128,477.734 833.726,478.242 831.581,477.462C829.437,476.681 827.924,474.748 827.68,472.48L825.626,453.34L806.421,454.641C804.144,454.795 801.978,453.64 800.837,451.664C799.696,449.688 799.779,447.235 801.051,445.34L811.78,429.358L796.232,418.01C794.389,416.664 793.472,414.387 793.868,412.14C794.264,409.893 795.905,408.067 798.097,407.433L816.589,402.087L811.973,383.399C811.426,381.184 812.187,378.85 813.935,377.383C815.683,375.916 818.114,375.572 820.2,376.496L837.802,384.286L846.278,367.004Z" style="fill:white;stroke:black;stroke-width:10px;"/>
            </g>
            <g transform="matrix(2,0,0,2,-1575.3,-357.657)">
                <path d="M869,404.934L834.355,439.579" style="fill:none;stroke:black;stroke-width:10px;"/>
            </g>
            <g transform="matrix(4,0,0,4,-3198.12,-1122.48)">
                <circle cx="838" cy="409" r="4"/>
            </g>
            <g transform="matrix(4,0,0,4,-3251.68,-1176.04)">
                <circle cx="838" cy="409" r="4"/>
            </g>
        </g>
    </g>
</svg>
